<mxfile host="65bd71144e">
    <diagram id="OilaQgoakzCUnJmnPlZ3" name="第 1 页">
        <mxGraphModel dx="2148" dy="732" grid="1" gridSize="10" guides="1" tooltips="1" connect="1" arrows="1" fold="1" page="1" pageScale="1" pageWidth="827" pageHeight="1169" math="0" shadow="0">
            <root>
                <mxCell id="0"/>
                <mxCell id="1" parent="0"/>
                <mxCell id="41" value="" style="endArrow=none;html=1;endSize=12;startArrow=none;startSize=14;startFill=0;edgeStyle=orthogonalEdgeStyle;align=center;verticalAlign=bottom;endFill=0;exitX=0;exitY=0.5;exitDx=0;exitDy=0;" edge="1" parent="1" source="12">
                    <mxGeometry y="3" relative="1" as="geometry">
                        <mxPoint x="80" y="730" as="sourcePoint"/>
                        <mxPoint x="870" y="204" as="targetPoint"/>
                        <Array as="points">
                            <mxPoint x="90" y="885"/>
                            <mxPoint x="90" y="204"/>
                        </Array>
                    </mxGeometry>
                </mxCell>
                <mxCell id="28" value="" style="endArrow=block;dashed=1;endFill=0;endSize=12;html=1;entryX=0;entryY=0.5;entryDx=0;entryDy=0;exitX=0;exitY=0.5;exitDx=0;exitDy=0;" edge="1" parent="1" source="8" target="4">
                    <mxGeometry width="160" relative="1" as="geometry">
                        <mxPoint x="250" y="560" as="sourcePoint"/>
                        <mxPoint x="320" y="130" as="targetPoint"/>
                        <Array as="points">
                            <mxPoint x="250" y="460"/>
                            <mxPoint x="250" y="130"/>
                        </Array>
                    </mxGeometry>
                </mxCell>
                <mxCell id="3" value="Ambisound" style="text;strokeColor=none;fillColor=none;html=1;fontSize=24;fontStyle=1;verticalAlign=middle;align=center;" vertex="1" parent="1">
                    <mxGeometry x="400" y="20" width="100" height="40" as="geometry"/>
                </mxCell>
                <mxCell id="4" value="carte sonore" style="ellipse;whiteSpace=wrap;html=1;fillColor=#3333FF;strokeColor=#3333FF;" vertex="1" parent="1">
                    <mxGeometry x="355" y="100" width="190" height="60" as="geometry"/>
                </mxCell>
                <mxCell id="5" value="Lecture des données&lt;br&gt;&amp;nbsp;des capteurs" style="ellipse;whiteSpace=wrap;html=1;fillColor=#7F00FF;strokeColor=#4C0099;" vertex="1" parent="1">
                    <mxGeometry x="180" y="170" width="140" height="70" as="geometry"/>
                </mxCell>
                <mxCell id="6" value="Utilisation du forum" style="ellipse;whiteSpace=wrap;html=1;fillColor=#FF00FF;strokeColor=#FF00FF;" vertex="1" parent="1">
                    <mxGeometry x="260" y="280" width="140" height="70" as="geometry"/>
                </mxCell>
                <mxCell id="7" value="Création du forum" style="ellipse;whiteSpace=wrap;html=1;fillColor=#FF00FF;strokeColor=#FF00FF;" vertex="1" parent="1">
                    <mxGeometry x="500" y="280" width="140" height="70" as="geometry"/>
                </mxCell>
                <mxCell id="8" value="S'identifier" style="ellipse;whiteSpace=wrap;html=1;fillColor=#3333FF;strokeColor=#3333FF;" vertex="1" parent="1">
                    <mxGeometry x="355" y="430" width="190" height="60" as="geometry"/>
                </mxCell>
                <mxCell id="9" value="Consultation des statistiques utilisateurs" style="ellipse;whiteSpace=wrap;html=1;fillColor=#7F00FF;strokeColor=#7F00FF;" vertex="1" parent="1">
                    <mxGeometry x="660" y="425" width="140" height="70" as="geometry"/>
                </mxCell>
                <mxCell id="10" value="Création et modification de playlist" style="ellipse;whiteSpace=wrap;html=1;fillColor=#7F00FF;strokeColor=#7F00FF;" vertex="1" parent="1">
                    <mxGeometry x="500" y="560" width="140" height="70" as="geometry"/>
                </mxCell>
                <mxCell id="11" value="Choix de playlist" style="ellipse;whiteSpace=wrap;html=1;fillColor=#7F00FF;strokeColor=#7F00FF;" vertex="1" parent="1">
                    <mxGeometry x="260" y="560" width="140" height="70" as="geometry"/>
                </mxCell>
                <mxCell id="12" value="Consultation de la FAQ" style="ellipse;whiteSpace=wrap;html=1;fillColor=#FF00FF;strokeColor=#FF00FF;" vertex="1" parent="1">
                    <mxGeometry x="260" y="850" width="140" height="70" as="geometry"/>
                </mxCell>
                <mxCell id="13" value="Diffusion de musique" style="ellipse;whiteSpace=wrap;html=1;fillColor=#3333FF;strokeColor=#3333FF;" vertex="1" parent="1">
                    <mxGeometry x="355" y="710" width="190" height="60" as="geometry"/>
                </mxCell>
                <mxCell id="14" value="Creation de la FAQ" style="ellipse;whiteSpace=wrap;html=1;fillColor=#FF00FF;strokeColor=#FF00FF;" vertex="1" parent="1">
                    <mxGeometry x="500" y="850" width="140" height="70" as="geometry"/>
                </mxCell>
                <mxCell id="15" value="Créer un événement" style="ellipse;whiteSpace=wrap;html=1;fillColor=#FF00FF;strokeColor=#FF00FF;" vertex="1" parent="1">
                    <mxGeometry x="380" y="970" width="140" height="70" as="geometry"/>
                </mxCell>
                <mxCell id="16" value="Consulter les événements disponibles" style="ellipse;whiteSpace=wrap;html=1;fillColor=#FF00FF;strokeColor=#FF00FF;" vertex="1" parent="1">
                    <mxGeometry x="380" y="1090" width="140" height="70" as="geometry"/>
                </mxCell>
                <mxCell id="17" value="" style="endArrow=block;dashed=1;endFill=0;endSize=12;html=1;exitX=0.5;exitY=0;exitDx=0;exitDy=0;entryX=0.5;entryY=1;entryDx=0;entryDy=0;" edge="1" parent="1" source="16" target="15">
                    <mxGeometry width="160" relative="1" as="geometry">
                        <mxPoint x="550" y="1100" as="sourcePoint"/>
                        <mxPoint x="710" y="1100" as="targetPoint"/>
                    </mxGeometry>
                </mxCell>
                <mxCell id="18" value="&lt;u&gt;&amp;lt;&amp;lt;inclut&amp;gt;&amp;gt;&lt;/u&gt;" style="text;html=1;align=center;verticalAlign=middle;resizable=0;points=[];autosize=1;strokeColor=none;fillColor=none;" vertex="1" parent="1">
                    <mxGeometry x="448" y="1055" width="80" height="30" as="geometry"/>
                </mxCell>
                <mxCell id="19" value="&lt;u&gt;&amp;lt;&amp;lt;inclut&amp;gt;&amp;gt;&lt;/u&gt;" style="text;html=1;align=center;verticalAlign=middle;resizable=0;points=[];autosize=1;strokeColor=none;fillColor=none;" vertex="1" parent="1">
                    <mxGeometry x="407" y="843" width="80" height="30" as="geometry"/>
                </mxCell>
                <mxCell id="20" value="&lt;u&gt;&amp;lt;&amp;lt;inclut&amp;gt;&amp;gt;&lt;/u&gt;" style="text;html=1;align=center;verticalAlign=middle;resizable=0;points=[];autosize=1;strokeColor=none;fillColor=none;" vertex="1" parent="1">
                    <mxGeometry x="728" y="680" width="80" height="30" as="geometry"/>
                </mxCell>
                <mxCell id="21" value="&lt;u&gt;&amp;lt;&amp;lt;inclut&amp;gt;&amp;gt;&lt;/u&gt;" style="text;html=1;align=center;verticalAlign=middle;resizable=0;points=[];autosize=1;strokeColor=none;fillColor=none;" vertex="1" parent="1">
                    <mxGeometry x="332" y="662" width="80" height="30" as="geometry"/>
                </mxCell>
                <mxCell id="22" value="&lt;u&gt;&amp;lt;&amp;lt;inclut&amp;gt;&amp;gt;&lt;/u&gt;" style="text;html=1;align=center;verticalAlign=middle;resizable=0;points=[];autosize=1;strokeColor=none;fillColor=none;" vertex="1" parent="1">
                    <mxGeometry x="406" y="559" width="80" height="30" as="geometry"/>
                </mxCell>
                <mxCell id="23" value="&lt;u&gt;&amp;lt;&amp;lt;inclut&amp;gt;&amp;gt;&lt;/u&gt;" style="text;html=1;align=center;verticalAlign=middle;resizable=0;points=[];autosize=1;strokeColor=none;fillColor=none;" vertex="1" parent="1">
                    <mxGeometry x="490" y="490" width="80" height="30" as="geometry"/>
                </mxCell>
                <mxCell id="24" value="&lt;u&gt;&amp;lt;&amp;lt;inclut&amp;gt;&amp;gt;&lt;/u&gt;" style="text;html=1;align=center;verticalAlign=middle;resizable=0;points=[];autosize=1;strokeColor=none;fillColor=none;" vertex="1" parent="1">
                    <mxGeometry x="576" y="380" width="80" height="30" as="geometry"/>
                </mxCell>
                <mxCell id="25" value="&lt;u&gt;&amp;lt;&amp;lt;inclut&amp;gt;&amp;gt;&lt;/u&gt;" style="text;html=1;align=center;verticalAlign=middle;resizable=0;points=[];autosize=1;strokeColor=none;fillColor=none;" vertex="1" parent="1">
                    <mxGeometry x="334" y="380" width="80" height="30" as="geometry"/>
                </mxCell>
                <mxCell id="26" value="&lt;u&gt;&amp;lt;&amp;lt;inclut&amp;gt;&amp;gt;&lt;/u&gt;" style="text;html=1;align=center;verticalAlign=middle;resizable=0;points=[];autosize=1;strokeColor=none;fillColor=none;" vertex="1" parent="1">
                    <mxGeometry x="406" y="280" width="80" height="30" as="geometry"/>
                </mxCell>
                <mxCell id="27" value="&lt;u&gt;&amp;lt;&amp;lt;inclut&amp;gt;&amp;gt;&lt;/u&gt;" style="text;html=1;align=center;verticalAlign=middle;resizable=0;points=[];autosize=1;strokeColor=none;fillColor=none;" vertex="1" parent="1">
                    <mxGeometry x="264" y="100" width="80" height="30" as="geometry"/>
                </mxCell>
                <mxCell id="29" value="" style="endArrow=block;dashed=1;endFill=0;endSize=12;html=1;exitX=0.5;exitY=1;exitDx=0;exitDy=0;entryX=0;entryY=0.5;entryDx=0;entryDy=0;" edge="1" parent="1" source="6" target="8">
                    <mxGeometry width="160" relative="1" as="geometry">
                        <mxPoint x="600" y="380" as="sourcePoint"/>
                        <mxPoint x="330" y="520" as="targetPoint"/>
                        <Array as="points">
                            <mxPoint x="330" y="460"/>
                        </Array>
                    </mxGeometry>
                </mxCell>
                <mxCell id="30" value="&lt;u&gt;&amp;lt;&amp;lt;inclut&amp;gt;&amp;gt;&lt;/u&gt;" style="text;html=1;align=center;verticalAlign=middle;resizable=0;points=[];autosize=1;strokeColor=none;fillColor=none;" vertex="1" parent="1">
                    <mxGeometry x="150" y="380" width="80" height="30" as="geometry"/>
                </mxCell>
                <mxCell id="31" value="" style="endArrow=block;dashed=1;endFill=0;endSize=12;html=1;exitX=0.5;exitY=1;exitDx=0;exitDy=0;entryX=1;entryY=0.5;entryDx=0;entryDy=0;" edge="1" parent="1" source="7" target="8">
                    <mxGeometry width="160" relative="1" as="geometry">
                        <mxPoint x="600" y="380" as="sourcePoint"/>
                        <mxPoint x="760" y="380" as="targetPoint"/>
                        <Array as="points">
                            <mxPoint x="570" y="460"/>
                        </Array>
                    </mxGeometry>
                </mxCell>
                <mxCell id="32" value="" style="endArrow=block;dashed=1;endFill=0;endSize=12;html=1;exitX=1;exitY=0.5;exitDx=0;exitDy=0;" edge="1" parent="1" source="15">
                    <mxGeometry width="160" relative="1" as="geometry">
                        <mxPoint x="730" y="1020" as="sourcePoint"/>
                        <mxPoint x="545" y="460" as="targetPoint"/>
                        <Array as="points">
                            <mxPoint x="730" y="1005"/>
                            <mxPoint x="730" y="500"/>
                            <mxPoint x="570" y="500"/>
                            <mxPoint x="570" y="460"/>
                        </Array>
                    </mxGeometry>
                </mxCell>
                <mxCell id="33" value="" style="endArrow=block;dashed=1;endFill=0;endSize=12;html=1;exitX=1;exitY=0.5;exitDx=0;exitDy=0;entryX=0;entryY=0.5;entryDx=0;entryDy=0;" edge="1" parent="1" source="12" target="14">
                    <mxGeometry width="160" relative="1" as="geometry">
                        <mxPoint x="600" y="830" as="sourcePoint"/>
                        <mxPoint x="760" y="830" as="targetPoint"/>
                    </mxGeometry>
                </mxCell>
                <mxCell id="34" value="" style="endArrow=block;dashed=1;endFill=0;endSize=12;html=1;exitX=0.5;exitY=0;exitDx=0;exitDy=0;entryX=0.5;entryY=1;entryDx=0;entryDy=0;" edge="1" parent="1" source="13" target="11">
                    <mxGeometry width="160" relative="1" as="geometry">
                        <mxPoint x="600" y="700" as="sourcePoint"/>
                        <mxPoint x="760" y="700" as="targetPoint"/>
                        <Array as="points">
                            <mxPoint x="450" y="660"/>
                            <mxPoint x="330" y="660"/>
                        </Array>
                    </mxGeometry>
                </mxCell>
                <mxCell id="35" value="" style="endArrow=block;dashed=1;endFill=0;endSize=12;html=1;exitX=1;exitY=0.5;exitDx=0;exitDy=0;entryX=0;entryY=0.5;entryDx=0;entryDy=0;" edge="1" parent="1" source="11" target="10">
                    <mxGeometry width="160" relative="1" as="geometry">
                        <mxPoint x="600" y="630" as="sourcePoint"/>
                        <mxPoint x="760" y="630" as="targetPoint"/>
                    </mxGeometry>
                </mxCell>
                <mxCell id="36" value="" style="endArrow=block;dashed=1;endFill=0;endSize=12;html=1;entryX=0.5;entryY=1;entryDx=0;entryDy=0;exitX=0.5;exitY=0;exitDx=0;exitDy=0;" edge="1" parent="1" source="11" target="8">
                    <mxGeometry width="160" relative="1" as="geometry">
                        <mxPoint x="320" y="520" as="sourcePoint"/>
                        <mxPoint x="760" y="570" as="targetPoint"/>
                        <Array as="points">
                            <mxPoint x="330" y="520"/>
                            <mxPoint x="450" y="520"/>
                        </Array>
                    </mxGeometry>
                </mxCell>
                <mxCell id="37" value="" style="endArrow=block;dashed=1;endFill=0;endSize=12;html=1;exitX=0.5;exitY=0;exitDx=0;exitDy=0;" edge="1" parent="1" source="10">
                    <mxGeometry width="160" relative="1" as="geometry">
                        <mxPoint x="570" y="540" as="sourcePoint"/>
                        <mxPoint x="450" y="490" as="targetPoint"/>
                        <Array as="points">
                            <mxPoint x="570" y="520"/>
                            <mxPoint x="510" y="520"/>
                            <mxPoint x="450" y="520"/>
                        </Array>
                    </mxGeometry>
                </mxCell>
                <mxCell id="38" value="" style="endArrow=block;dashed=1;endFill=0;endSize=12;html=1;exitX=1;exitY=0.5;exitDx=0;exitDy=0;entryX=0;entryY=0.5;entryDx=0;entryDy=0;" edge="1" parent="1" source="6" target="7">
                    <mxGeometry width="160" relative="1" as="geometry">
                        <mxPoint x="620" y="520" as="sourcePoint"/>
                        <mxPoint x="780" y="520" as="targetPoint"/>
                    </mxGeometry>
                </mxCell>
                <mxCell id="45" value="" style="endArrow=none;html=1;endSize=12;startArrow=none;startSize=14;startFill=0;edgeStyle=orthogonalEdgeStyle;align=center;verticalAlign=bottom;endFill=0;entryX=0;entryY=0.5;entryDx=0;entryDy=0;" edge="1" parent="1" target="13">
                    <mxGeometry y="3" relative="1" as="geometry">
                        <mxPoint x="90" y="740" as="sourcePoint"/>
                        <mxPoint x="250" y="740" as="targetPoint"/>
                    </mxGeometry>
                </mxCell>
                <mxCell id="46" value="" style="endArrow=none;html=1;endSize=12;startArrow=none;startSize=14;startFill=0;edgeStyle=orthogonalEdgeStyle;align=center;verticalAlign=bottom;endFill=0;entryX=0;entryY=0.5;entryDx=0;entryDy=0;" edge="1" parent="1" target="11">
                    <mxGeometry y="3" relative="1" as="geometry">
                        <mxPoint x="90" y="595" as="sourcePoint"/>
                        <mxPoint x="365" y="750" as="targetPoint"/>
                    </mxGeometry>
                </mxCell>
                <mxCell id="47" value="" style="endArrow=none;html=1;endSize=12;startArrow=none;startSize=14;startFill=0;edgeStyle=orthogonalEdgeStyle;align=center;verticalAlign=bottom;endFill=0;entryX=0;entryY=0.5;entryDx=0;entryDy=0;" edge="1" parent="1">
                    <mxGeometry y="3" relative="1" as="geometry">
                        <mxPoint x="90" y="314.5" as="sourcePoint"/>
                        <mxPoint x="260" y="314.5" as="targetPoint"/>
                    </mxGeometry>
                </mxCell>
                <mxCell id="48" value="" style="endArrow=none;html=1;endSize=12;startArrow=none;startSize=14;startFill=0;edgeStyle=orthogonalEdgeStyle;align=center;verticalAlign=bottom;endFill=0;entryX=0;entryY=0.5;entryDx=0;entryDy=0;exitX=0;exitY=0.5;exitDx=0;exitDy=0;" edge="1" parent="1" source="16">
                    <mxGeometry y="3" relative="1" as="geometry">
                        <mxPoint x="-70" y="1130" as="sourcePoint"/>
                        <mxPoint x="90" y="260" as="targetPoint"/>
                        <Array as="points">
                            <mxPoint x="-70" y="1125"/>
                            <mxPoint x="-70" y="260"/>
                        </Array>
                    </mxGeometry>
                </mxCell>
                <mxCell id="49" value="" style="endArrow=none;html=1;endSize=12;startArrow=none;startSize=14;startFill=0;edgeStyle=orthogonalEdgeStyle;align=center;verticalAlign=bottom;endFill=0;entryX=0;entryY=0.5;entryDx=0;entryDy=0;" edge="1" parent="1" target="15">
                    <mxGeometry y="3" relative="1" as="geometry">
                        <mxPoint x="-70" y="1005" as="sourcePoint"/>
                        <mxPoint x="225" y="1004.5" as="targetPoint"/>
                    </mxGeometry>
                </mxCell>
                <mxCell id="50" value="" style="endArrow=none;html=1;endSize=12;startArrow=none;startSize=14;startFill=0;edgeStyle=orthogonalEdgeStyle;align=center;verticalAlign=bottom;endFill=0;exitX=1;exitY=0.5;exitDx=0;exitDy=0;" edge="1" parent="1" source="14">
                    <mxGeometry y="3" relative="1" as="geometry">
                        <mxPoint x="640" y="888.44" as="sourcePoint"/>
                        <mxPoint x="870" y="204" as="targetPoint"/>
                    </mxGeometry>
                </mxCell>
                <mxCell id="51" value="" style="endArrow=none;html=1;endSize=12;startArrow=none;startSize=14;startFill=0;edgeStyle=orthogonalEdgeStyle;align=center;verticalAlign=bottom;endFill=0;entryX=0;entryY=0.5;entryDx=0;entryDy=0;exitX=1;exitY=0.5;exitDx=0;exitDy=0;" edge="1" parent="1" source="7">
                    <mxGeometry y="3" relative="1" as="geometry">
                        <mxPoint x="700" y="314.44" as="sourcePoint"/>
                        <mxPoint x="870" y="314.44" as="targetPoint"/>
                    </mxGeometry>
                </mxCell>
                <mxCell id="52" value="Administrateur" style="shape=umlActor;verticalLabelPosition=bottom;verticalAlign=top;html=1;fillColor=#03011D;" vertex="1" parent="1">
                    <mxGeometry x="1020" y="430" width="30" height="60" as="geometry"/>
                </mxCell>
                <mxCell id="53" value="" style="endArrow=none;html=1;endSize=12;startArrow=none;startSize=14;startFill=0;edgeStyle=orthogonalEdgeStyle;align=center;verticalAlign=bottom;endFill=0;entryX=0.5;entryY=0.5;entryDx=0;entryDy=0;exitX=1;exitY=0.5;exitDx=0;exitDy=0;entryPerimeter=0;" edge="1" parent="1" source="9" target="52">
                    <mxGeometry y="3" relative="1" as="geometry">
                        <mxPoint x="808.0000000000041" y="455.56" as="sourcePoint"/>
                        <mxPoint x="1038" y="455.00000000000006" as="targetPoint"/>
                    </mxGeometry>
                </mxCell>
                <mxCell id="54" value="Ingénieur logiciel" style="shape=umlActor;verticalLabelPosition=bottom;verticalAlign=top;html=1;fillColor=#03011D;" vertex="1" parent="1">
                    <mxGeometry x="1028" y="100" width="30" height="60" as="geometry"/>
                </mxCell>
                <mxCell id="55" value="" style="endArrow=none;html=1;endSize=12;startArrow=none;startSize=14;startFill=0;edgeStyle=orthogonalEdgeStyle;align=center;verticalAlign=bottom;endFill=0;entryX=0.5;entryY=0.5;entryDx=0;entryDy=0;exitX=1;exitY=0.5;exitDx=0;exitDy=0;entryPerimeter=0;" edge="1" parent="1" target="54" source="4">
                    <mxGeometry y="3" relative="1" as="geometry">
                        <mxPoint x="807.9999999999995" y="130" as="sourcePoint"/>
                        <mxPoint x="1046" y="125.00000000000006" as="targetPoint"/>
                    </mxGeometry>
                </mxCell>
                <mxCell id="56" value="Organisateur de &lt;br&gt;convention" style="shape=umlActor;verticalLabelPosition=bottom;verticalAlign=top;html=1;fillColor=#03011D;" vertex="1" parent="1">
                    <mxGeometry x="-30" y="230" width="30" height="60" as="geometry"/>
                </mxCell>
                <mxCell id="58" value="Client normal" style="shape=umlActor;verticalLabelPosition=bottom;verticalAlign=top;html=1;fillColor=#03011D;" vertex="1" parent="1">
                    <mxGeometry x="-30" y="529" width="30" height="60" as="geometry"/>
                </mxCell>
                <mxCell id="59" value="" style="endArrow=none;html=1;endSize=12;startArrow=none;startSize=14;startFill=0;edgeStyle=orthogonalEdgeStyle;align=center;verticalAlign=bottom;endFill=0;entryX=0.5;entryY=1;entryDx=0;entryDy=0;fillColor=#990000;strokeColor=#FF3333;" edge="1" parent="1" target="6">
                    <mxGeometry y="3" relative="1" as="geometry">
                        <mxPoint x="-15" y="556" as="sourcePoint"/>
                        <mxPoint x="330" y="360" as="targetPoint"/>
                        <Array as="points">
                            <mxPoint x="140" y="556"/>
                            <mxPoint x="140" y="360"/>
                            <mxPoint x="330" y="360"/>
                        </Array>
                    </mxGeometry>
                </mxCell>
                <mxCell id="61" value="" style="endArrow=none;html=1;endSize=12;startArrow=none;startSize=14;startFill=0;edgeStyle=orthogonalEdgeStyle;align=center;verticalAlign=bottom;endFill=0;entryX=0.5;entryY=0;entryDx=0;entryDy=0;strokeColor=#FF3333;" edge="1" parent="1" target="12">
                    <mxGeometry y="3" relative="1" as="geometry">
                        <mxPoint x="140" y="550" as="sourcePoint"/>
                        <mxPoint x="275" y="662" as="targetPoint"/>
                        <Array as="points">
                            <mxPoint x="140" y="830"/>
                            <mxPoint x="330" y="830"/>
                        </Array>
                    </mxGeometry>
                </mxCell>
                <mxCell id="62" value="" style="endArrow=none;html=1;endSize=12;startArrow=none;startSize=14;startFill=0;edgeStyle=orthogonalEdgeStyle;align=center;verticalAlign=bottom;endFill=0;entryX=0.5;entryY=0;entryDx=0;entryDy=0;strokeColor=#FF3333;exitX=0.469;exitY=0.662;exitDx=0;exitDy=0;exitPerimeter=0;" edge="1" parent="1" source="58" target="16">
                    <mxGeometry y="3" relative="1" as="geometry">
                        <mxPoint x="150" y="560" as="sourcePoint"/>
                        <mxPoint x="340" y="860" as="targetPoint"/>
                        <Array as="points">
                            <mxPoint x="30" y="569"/>
                            <mxPoint x="30" y="1070"/>
                            <mxPoint x="450" y="1070"/>
                        </Array>
                    </mxGeometry>
                </mxCell>
                <mxCell id="63" value="Pas de compte" style="shape=umlActor;verticalLabelPosition=bottom;verticalAlign=top;html=1;fillColor=#03011D;" vertex="1" parent="1">
                    <mxGeometry x="-30" y="750" width="30" height="60" as="geometry"/>
                </mxCell>
                <mxCell id="66" value="" style="endArrow=none;html=1;endSize=12;startArrow=none;startSize=14;startFill=0;edgeStyle=orthogonalEdgeStyle;align=center;verticalAlign=bottom;endFill=0;entryX=0.5;entryY=1;entryDx=0;entryDy=0;strokeColor=#00CC00;" edge="1" parent="1" target="12">
                    <mxGeometry y="3" relative="1" as="geometry">
                        <mxPoint x="-15" y="779.41" as="sourcePoint"/>
                        <mxPoint x="360" y="940" as="targetPoint"/>
                        <Array as="points">
                            <mxPoint x="60" y="779"/>
                            <mxPoint x="60" y="940"/>
                            <mxPoint x="330" y="940"/>
                        </Array>
                    </mxGeometry>
                </mxCell>
            </root>
        </mxGraphModel>
    </diagram>
</mxfile>